<?xml version="1.0" standalone="no"?>
<!DOCTYPE svg PUBLIC "-//W3C//DTD SVG 20010904//EN"
 "http://www.w3.org/TR/2001/REC-SVG-20010904/DTD/svg10.dtd">
<svg version="1.0" xmlns="http://www.w3.org/2000/svg"
 width="512.000000pt" height="512.000000pt" viewBox="0 0 512.000000 512.000000"
 preserveAspectRatio="xMidYMid meet">
<metadata>
Created by potrace 1.14, written by Peter Selinger 2001-2017
</metadata>
<g transform="translate(0.000000,512.000000) scale(0.100000,-0.100000)"
fill="#000000" stroke="none">
<path d="M0 2560 l0 -2560 2560 0 2560 0 0 2560 0 2560 -2560 0 -2560 0 0
-2560z m1373 1864 c56 -19 131 -83 156 -133 63 -126 75 -362 92 -1871 6 -564
16 -1028 20 -1031 5 -3 255 -11 556 -17 1466 -33 1712 -46 1881 -97 64 -19
117 -64 134 -113 16 -49 17 -246 0 -294 -18 -51 -68 -92 -144 -117 -168 -55
-380 -64 -1503 -64 -996 1 -1222 8 -1360 43 -86 22 -102 31 -211 122 l-82 67
-8 768 c-5 422 -9 1121 -9 1553 0 824 4 902 45 997 33 75 144 164 240 194 43
13 145 10 193 -7z"/>
</g>
</svg>
